<?xml version="1.0" encoding="UTF-8" standalone="yes"?>
<!DOCTYPE svg PUBLIC "-//W3C//DTD SVG 1.1//EN" "http://www.w3.org/Graphics/SVG/1.1/DTD/svg11.dtd">

<svg width="234" height="152" viewBox="0 0 234 152" xmlns="http://www.w3.org/2000/svg" xmlns:xlink="http://www.w3.org/1999/xlink" version="1.1" baseProfile="full">
    <g transform="scale(0.500000,-0.500000) translate(0,-305)">
        <path d="M 1.000000 10.020855 L 10.021029 10.020855 C 10.021029 10.020855 10.021029 10.020855 10.021029 10.020855 L 10.021029 1.000000 C 10.021029 1.000000 10.021029 1.000000 10.021029 1.000000 L 1.000000 1.000000 C 1.000000 1.000000 1.000000 1.000000 1.000000 1.000000 L 1.000000 10.020855 C 1.000000 10.020855 1.000000 10.020855 1.000000 10.020855 Z" transform="scale(1.000000,1.000000) translate(6.126731,-0.101696)" fill="#fb0006" opacity="1.000000"></path>
        <path d="M 1.000000 64.145986 L 10.021029 64.145986 C 10.021029 64.145986 10.021029 64.145986 10.021029 64.145986 L 10.021029 1.000000 C 10.021029 1.000000 10.021029 1.000000 10.021029 1.000000 L 1.000000 1.000000 C 1.000000 1.000000 1.000000 1.000000 1.000000 1.000000 L 1.000000 64.145986 C 1.000000 64.145986 1.000000 64.145986 1.000000 64.145986 Z" transform="scale(1.000000,1.000000) translate(6.126731,8.919159)" fill="#fdc209" opacity="1.000000"></path>
        <path d="M 1.000000 73.166841 L 10.021029 73.166841 C 10.021029 73.166841 10.021029 73.166841 10.021029 73.166841 L 10.021029 1.000000 C 10.021029 1.000000 10.021029 1.000000 10.021029 1.000000 L 1.000000 1.000000 C 1.000000 1.000000 1.000000 1.000000 1.000000 1.000000 L 1.000000 73.166841 C 1.000000 73.166841 1.000000 73.166841 1.000000 73.166841 Z" transform="scale(1.000000,1.000000) translate(24.168788,-0.101696)" fill="#fdc209" opacity="1.000000"></path>
        <path d="M 1.000000 73.166841 L 10.021029 73.166841 C 10.021029 73.166841 10.021029 73.166841 10.021029 73.166841 L 10.021029 1.000000 C 10.021029 1.000000 10.021029 1.000000 10.021029 1.000000 L 1.000000 1.000000 C 1.000000 1.000000 1.000000 1.000000 1.000000 1.000000 L 1.000000 73.166841 C 1.000000 73.166841 1.000000 73.166841 1.000000 73.166841 Z" transform="scale(1.000000,1.000000) translate(42.210845,-0.101696)" fill="#fdc209" opacity="1.000000"></path>
        <path d="M 1.000000 73.166841 L 10.021029 73.166841 C 10.021029 73.166841 10.021029 73.166841 10.021029 73.166841 L 10.021029 1.000000 C 10.021029 1.000000 10.021029 1.000000 10.021029 1.000000 L 1.000000 1.000000 C 1.000000 1.000000 1.000000 1.000000 1.000000 1.000000 L 1.000000 73.166841 C 1.000000 73.166841 1.000000 73.166841 1.000000 73.166841 Z" transform="scale(1.000000,1.000000) translate(60.252902,-0.101696)" fill="#fdc209" opacity="1.000000"></path>
        <path d="M 1.000000 14.531283 L 10.021029 14.531283 C 10.021029 14.531283 10.021029 14.531283 10.021029 14.531283 L 10.021029 1.000000 C 10.021029 1.000000 10.021029 1.000000 10.021029 1.000000 L 1.000000 1.000000 C 1.000000 1.000000 1.000000 1.000000 1.000000 1.000000 L 1.000000 14.531283 C 1.000000 14.531283 1.000000 14.531283 1.000000 14.531283 Z" transform="scale(1.000000,1.000000) translate(78.294959,29.216083)" fill="#fdc209" opacity="1.000000"></path>
        <path d="M 19.134847 9.613885 C 19.134847 6.893717 18.228119 4.626905 16.414627 3.266812 C 14.601135 1.453364 12.334279 1.000000 10.067424 1.000000 C 7.347203 1.000000 5.533712 1.906728 3.720255 3.266812 C 1.906763 4.626905 1.000000 6.893717 1.000000 9.613885 C 1.000000 12.334062 1.906763 14.600874 3.720255 15.960966 C 5.533712 17.321050 7.800568 18.227779 10.067424 18.227779 C 12.787678 18.227779 14.601135 17.321050 16.414627 15.960966 C 18.228119 14.600874 19.134847 12.334062 19.134847 9.613885 Z" transform="scale(1.000000,1.000000) translate(373.619098,251.271670)" fill="#2b2d32" opacity="1.000000"></path>
        <path d="M 1.000000 53.590047 L 16.414620 53.590047 C 16.414620 53.590047 16.414620 53.590047 16.414620 53.590047 L 16.414620 1.000000 C 16.414620 1.000000 16.414620 1.000000 16.414620 1.000000 L 1.000000 1.000000 C 1.000000 1.000000 1.000000 1.000000 1.000000 1.000000 L 1.000000 53.590047 C 1.000000 53.590047 1.000000 53.590047 1.000000 53.590047 Z" transform="scale(1.000000,1.000000) translate(374.979226,190.974665)" fill="#2b2d32" opacity="1.000000"></path>
        <path d="M 35.002838 41.802622 C 33.642728 42.255986 31.829237 42.709350 30.015762 42.709350 C 28.202271 43.162710 25.935415 43.162710 23.668559 43.162710 C 22.761813 43.162710 21.401703 43.162710 20.041593 42.709350 C 18.681483 42.709350 17.774737 42.255986 16.867991 42.255986 L 16.867991 1.000000 L 1.000000 1.000000 L 1.000000 52.229959 C 3.720237 53.136683 7.347203 54.043412 10.974169 54.950136 C 15.054517 55.856860 19.134847 56.310222 24.121940 56.310222 L 27.295525 56.310222 C 28.655652 56.310222 29.562381 55.856860 30.922508 55.856860 C 32.282618 55.856860 33.189364 55.403495 34.549474 55.403495 C 35.909584 54.950136 36.816330 54.950136 37.723076 54.496771 L 35.002838 41.802622 Z" transform="scale(1.000000,1.000000) translate(183.656586,190.521302)" fill="#2b2d32" opacity="1.000000"></path>
        <path d="M 31.829219 29.561840 C 31.829219 34.548825 31.375855 38.175725 30.015728 39.989174 C 28.655635 42.255986 26.388779 43.162714 23.215160 43.162714 L 20.041576 43.162714 C 19.134847 43.162714 17.774720 42.709350 16.867991 42.709350 L 16.867991 1.000000 L 1.000000 1.000000 L 1.000000 53.136688 C 2.360093 53.590047 4.173584 54.043412 5.987076 54.043412 C 7.800568 54.496776 9.614025 54.950136 11.880881 54.950136 C 13.694372 55.403500 15.961228 55.403500 18.228084 55.856860 C 20.494940 55.856860 22.308431 56.310224 24.575287 56.310224 C 28.655635 56.310224 31.829219 55.856860 34.549439 54.950136 C 37.269694 54.043412 39.083151 52.683323 40.896643 51.323235 C 43.163499 53.136688 45.883719 54.043412 48.603974 54.950136 C 51.777558 55.856860 54.497778 56.310224 56.764634 56.310224 C 61.298346 56.310224 64.925329 55.856860 68.098913 54.496776 C 70.819133 53.136688 73.085989 51.776599 74.899481 49.509787 C 76.712973 47.242975 77.619701 44.522798 78.526464 41.802626 C 78.979828 38.629090 79.433193 35.455549 79.433193 31.828653 L 79.433193 1.453364 L 63.565202 1.453364 L 63.565202 30.015200 C 63.565202 35.002189 63.111837 38.629090 61.751710 40.442538 C 60.391617 42.709350 58.124761 43.616074 54.951142 43.616074 C 54.044414 43.616074 53.137685 43.616074 51.324194 43.162714 C 49.964066 42.709350 48.603974 42.255986 47.697210 41.802626 C 48.150575 39.989174 48.603974 38.629090 48.603974 36.815637 L 48.603974 1.906728 L 32.735982 1.906728 L 32.735982 29.561840 L 31.829219 29.561840 Z" transform="scale(1.000000,1.000000) translate(285.665118,190.974637)" fill="#2b2d32" opacity="1.000000"></path>
        <path d="M 14.164332 14.605370 C 9.630745 12.338869 0.563073 7.804875 1.016382 2.364771 C 2.376806 -0.808826 6.003776 2.364771 7.363703 3.724675 C 10.537364 6.898272 12.804405 10.978472 14.164332 14.605370 Z" transform="scale(1.000000,1.000000) translate(20.342165,195.050296)" fill="#2b2d32" opacity="1.000000"></path>
        <path d="M 63.365170 66.737499 C 60.191508 58.576599 51.123838 54.949701 48.857291 56.310099 C 47.496867 57.216702 48.857291 59.483695 48.857291 61.296902 C 47.043560 60.390298 43.869899 59.029901 42.056661 58.576599 C 46.590250 55.403003 48.857291 49.509604 48.857291 44.069006 C 48.857291 38.628902 46.590250 33.641606 42.509972 30.014708 C 50.217218 18.680712 46.136940 9.160400 35.709342 1.453309 L 35.256032 1.000000 L 35.256032 1.906603 C 33.896105 7.346708 31.629064 11.880710 28.002094 15.960902 C 26.188360 18.227402 23.921816 20.041109 22.108082 21.854301 C 19.388228 24.574603 16.667877 26.841604 14.400835 29.561406 C 3.973236 40.442101 -0.107043 59.483695 1.253382 73.991296 C 2.160000 81.698394 4.426545 88.952198 7.600205 95.298898 C 10.320557 100.739495 13.947526 105.726298 18.027804 109.806498 C 27.095476 119.327295 39.336310 127.034393 52.030952 131.114593 C 63.365170 134.288193 76.059311 135.194794 86.940222 129.754692 C 88.753956 128.848093 91.473811 127.487695 92.834235 126.127794 L 96.007892 122.954194 L 145.878344 148.342492 C 149.958630 150.609490 153.132295 150.609490 154.492719 148.795792 C 155.852643 146.982590 154.039401 143.355691 150.865736 141.541993 L 107.795417 110.260293 C 108.702037 107.993295 107.342114 104.366397 105.528380 102.099396 C 111.422392 100.286197 106.434993 91.672000 103.715138 88.952198 C 96.461203 80.337996 83.313254 73.991296 71.525730 69.004000 C 67.898755 68.097396 66.085020 67.644102 63.365170 66.737499 Z" transform="scale(1.000000,1.000000) translate(-0.749535,154.705965)" fill="#2b2d32" opacity="1.000000"></path>
        <path d="M 100.253411 89.405676 C 103.427012 93.485941 101.160156 95.752753 98.893300 93.485941 C 94.359589 88.952316 88.012394 87.592228 81.665191 88.498952 C 73.051140 89.859040 72.597767 91.219128 73.957886 92.579217 C 84.385419 88.952316 96.626445 93.939300 101.613529 102.099826 C 103.880385 105.273362 96.626445 107.540174 92.092733 113.433889 C 71.691030 141.088999 7.312322 117.060788 1.418497 68.551005 C -0.394988 54.043403 3.685352 37.722361 13.659518 26.388300 C 21.366828 17.774406 29.074139 14.147510 34.061221 1.000000 C 43.128645 8.707157 41.768531 17.321050 34.967963 25.028207 C 46.302242 30.921924 44.488759 45.882882 36.781450 50.416507 C 33.154480 36.815633 20.006715 26.841655 16.833116 36.362269 C 15.019631 46.336246 30.887622 52.683319 56.729780 62.203932 C 78.038225 70.817817 92.092733 77.618254 100.253411 89.405676 Z" transform="scale(1.000000,1.000000) translate(3.945724,160.801563)" fill="#47b2c2" opacity="1.000000"></path>
        <path d="M 87.246885 56.763579 C 90.420487 60.843844 88.153631 63.110656 85.886775 60.843844 C 82.259801 56.763579 76.365979 55.403491 71.378894 55.403491 C 62.311471 55.856855 55.510907 57.670303 49.163708 57.216944 C 36.469314 55.856855 23.774925 47.696330 17.427726 40.895893 C 6.093446 29.561832 -6.147574 5.533625 6.093446 1.000000 C 5.186705 1.453364 4.279961 2.813448 3.826591 4.173532 C 2.013105 14.147510 17.881097 20.494582 43.723255 30.015196 C 65.031699 38.175721 79.086208 44.976158 87.246885 56.763579 Z" transform="scale(1.000000,1.000000) translate(16.952250,193.443671)" fill="#ffffff" opacity="1.000000"></path>
        <path d="M 1.164744 18.681139 C 7.965311 15.507602 6.605201 4.173541 5.698456 1.000000 C 18.392849 4.626905 14.312510 23.214763 20.206337 28.655112 C 12.952396 29.108476 -0.648739 21.854675 1.164744 18.681139 Z" transform="scale(1.000000,1.000000) translate(47.723108,212.938249)" fill="#47b2c2" opacity="1.000000"></path>
        <path d="M 3.017959 7.801738 C 4.829810 8.706525 7.098846 8.253849 8.003644 6.442034 C 8.910698 4.626280 8.455765 2.361232 6.643914 1.456446 C 4.830377 0.545477 2.561345 0.998145 1.654291 2.813899 C 0.294556 4.626841 1.202174 6.894704 3.017959 7.801738 Z" transform="scale(1.000000,1.000000) translate(67.179957,257.365559)" fill="#2b2d32" opacity="1.000000"></path>
        <path d="M 7.824108 1.409979 L 58.148310 36.318892 C 59.508421 37.225620 61.321912 39.492432 60.868531 40.399152 C 59.961785 41.305881 57.694929 40.852516 55.881455 39.945797 L 1.476913 10.477237 C -0.336578 6.850332 3.290396 -0.856834 7.824108 1.409979 Z" transform="scale(1.000000,1.000000) translate(92.748061,262.397943)" fill="#47b2c2" opacity="1.000000"></path>
        <path d="M 3.276010 8.253801 L 55.867069 39.082454 C 58.133924 40.442538 59.040670 40.442538 60.400780 40.442538 C 59.494035 41.349266 57.227179 40.895902 55.867069 39.989174 L 1.462527 10.520613 C 0.102409 7.800446 1.915892 2.813457 4.636120 1.000000 C 3.729383 3.720185 3.276010 5.986989 3.276010 8.253801 Z" transform="scale(1.000000,1.000000) translate(92.762447,262.354809)" fill="#ffffff" opacity="1.000000"></path>
        <path d="M 4.173600 7.434942 C 5.987084 7.888306 7.347197 6.528213 7.347197 4.714765 C 7.347197 2.901317 5.987084 1.087869 4.173600 1.087869 C 2.360114 0.634505 1.000000 1.994589 1.000000 3.808046 C 1.000000 5.621494 2.360114 7.434942 4.173600 7.434942 Z" transform="scale(1.000000,1.000000) translate(14.337454,249.119347)" fill="#239c9c" opacity="1.000000"></path>
        <path d="M 3.720227 6.529273 C 5.080341 6.982637 6.440453 5.622554 6.440453 4.262461 C 6.440453 2.902377 5.080341 1.088929 3.720227 1.088929 C 2.360114 0.635565 1.000000 1.995649 1.000000 3.355741 C 1.000000 4.715825 1.906741 6.529273 3.720227 6.529273 Z" transform="scale(1.000000,1.000000) translate(25.218187,261.359223)" fill="#239c9c" opacity="1.000000"></path>
        <path d="M 4.624246 6.440647 C 5.984432 6.441747 6.891591 5.079385 6.892690 3.719221 C 6.436364 2.361264 5.077273 1.000001 3.264057 1.000001 C 1.903867 0.998902 0.996707 2.361264 1.000009 3.720328 C 1.453038 5.532406 3.264056 6.439549 4.624246 6.440647 Z" transform="scale(1.000000,1.000000) translate(55.143579,276.406839)" fill="#239c9c" opacity="1.000000"></path>
        <path d="M 4.343038 5.533480 C 5.705215 5.081398 6.157308 4.173017 5.702685 2.816759 C 5.250590 1.454610 3.892626 1.001680 2.529608 1.000000 C 1.169117 1.456297 0.715339 2.360463 1.171641 3.720929 C 1.623735 5.083078 2.985915 5.534322 4.343038 5.533480 Z" transform="scale(1.000000,1.000000) translate(64.945376,279.127253)" fill="#239c9c" opacity="1.000000"></path>
        <path d="M 3.268009 5.077838 C 4.176214 5.081838 5.083419 4.625245 5.082918 3.265966 C 5.082418 1.906686 4.174212 0.999496 2.814909 1.000000 C 1.907203 1.000504 1.004005 1.452092 1.000000 2.811873 C 1.456603 3.719056 2.360304 4.626746 3.268009 5.077838 Z" transform="scale(1.000000,1.000000) translate(25.670352,256.006609)" fill="#239c9c" opacity="1.000000"></path>
        <path d="M 3.266856 5.533625 C 4.626969 5.533625 5.533712 5.080260 5.533712 3.720177 C 5.533712 2.360084 4.626969 1.453364 3.266856 1.000000 C 1.906743 1.000000 1.000000 1.453364 1.000000 2.813448 C 1.000000 4.173541 1.906743 5.080260 3.266856 5.533625 Z" transform="scale(1.000000,1.000000) translate(9.803743,242.406803)" fill="#239c9c" opacity="1.000000"></path>
        <path d="M 3.267045 10.520799 L 1.000000 9.160401 C 1.000000 5.533501 4.173658 1.453302 5.986899 1.000000 C 4.173658 3.267001 2.813234 7.800500 3.267045 10.520799 Z" transform="scale(1.000000,1.000000) translate(104.105404,269.607162)" fill="#239c9c" opacity="1.000000"></path>
        <path d="M 3.267037 8.707597 L 1.000000 7.800500 C 1.453803 4.626900 3.720347 1.000000 5.080771 1.000000 C 4.173658 2.360400 2.813734 6.440599 3.267037 8.707597 Z" transform="scale(1.000000,1.000000) translate(116.799549,278.220863)" fill="#239c9c" opacity="1.000000"></path>
        <path d="M 2.359923 7.346701 L 1.000000 6.440101 C 1.000000 4.626899 2.359923 1.453300 4.173650 1.000000 C 3.267029 2.359901 1.906605 4.626899 2.359923 7.346701 Z" transform="scale(1.000000,1.000000) translate(129.947505,286.381761)" fill="#239c9c" opacity="1.000000"></path>
        <path d="M 2.360424 5.986801 L 1.000000 5.080200 C 1.000000 3.720299 2.813727 1.453301 3.720347 1.000000 C 3.267029 1.906601 2.360424 4.173599 2.360424 5.986801 Z" transform="scale(1.000000,1.000000) translate(141.735029,294.088860)" fill="#239c9c" opacity="1.000000"></path>
        <path d="M 26.606528 1.002635 C 23.118727 0.953845 19.658053 1.583031 16.408932 2.846867 C 13.382208 4.067291 10.642956 5.916943 8.381044 8.271013 C 6.005224 10.663071 4.160978 13.527020 2.956794 16.678414 C 0.347735 24.066139 0.347735 32.126421 2.956794 39.514105 C 5.381426 45.963389 10.491077 51.051257 16.951349 53.454158 C 20.298114 54.707110 23.845570 55.330916 27.420153 55.298348 C 30.273314 55.358022 33.115633 55.027165 35.881991 54.322000 C 38.127639 53.709077 40.313611 52.873762 42.391096 51.826898 L 40.438362 45.697628 C 38.594116 46.939737 36.608835 47.959496 34.525929 48.735136 C 32.030779 49.575872 29.405435 49.977246 26.769249 49.928455 C 21.887416 49.977246 17.222578 47.872716 14.022270 44.178874 C 12.286511 42.155661 10.962976 39.817856 10.116803 37.290185 C 9.097045 34.268940 8.603441 31.095820 8.652253 27.906436 C 8.608862 24.798369 9.069918 21.701187 10.008315 18.739616 C 10.789413 16.255356 12.064115 13.950077 13.751040 11.959433 C 15.318657 10.142349 17.287654 8.715796 19.500753 7.782818 C 21.871152 6.790206 24.415135 6.291211 26.986224 6.318317 C 29.324075 6.307474 31.651083 6.670899 33.875024 7.403129 C 35.995900 8.140822 38.035415 9.100906 39.950179 10.277961 L 41.848658 5.667404 C 40.015275 4.273420 37.959476 3.193987 35.773504 2.467178 C 32.822719 1.458262 29.725476 0.959266 26.606528 1.002635 Z" transform="scale(1.000000,1.000000) translate(108.207605,8.129293)" fill="#2b2d32" opacity="1.000000"></path>
        <path d="M 1.000000 56.055079 L 7.454858 56.055079 C 7.454858 56.055079 7.454858 56.055079 7.454858 56.055079 L 7.454858 1.000000 C 7.454858 1.000000 7.454858 1.000000 7.454858 1.000000 L 1.000000 1.000000 C 1.000000 1.000000 1.000000 1.000000 1.000000 1.000000 L 1.000000 56.055079 C 1.000000 56.055079 1.000000 56.055079 1.000000 56.055079 Z" transform="scale(1.000000,1.000000) translate(157.355380,8.891316)" fill="#2b2d32" opacity="1.000000"></path>
        <path d="M 19.946906 1.000187 C 17.408344 0.989345 14.886088 1.450392 12.515668 2.356223 C 10.248336 3.207843 8.192557 4.536732 6.494747 6.261615 C 4.753568 8.051593 3.386663 10.172428 2.480814 12.499391 C 0.506395 17.891010 0.506395 23.814152 2.480814 29.205771 C 3.408348 31.548997 4.813243 33.675253 6.603256 35.443547 C 8.404111 37.211799 10.568356 38.562414 12.949618 39.403150 C 15.395936 40.308981 17.988751 40.770029 20.597831 40.759187 C 22.664452 40.775450 24.720231 40.536795 26.727219 40.054063 C 28.343627 39.685216 29.884136 39.045146 31.283569 38.155620 L 29.222369 32.460250 C 27.898834 33.474546 26.461411 34.326166 24.937206 35.009605 C 23.347905 35.633370 21.650096 35.931700 19.946906 35.877447 C 18.308772 35.888331 16.686943 35.573696 15.173581 34.955352 C 13.654756 34.326166 12.304115 33.360660 11.213860 32.134814 C 10.036782 30.789620 9.130933 29.222034 8.555989 27.524257 C 7.834546 25.430570 7.487378 23.228335 7.525368 21.015299 C 7.259560 17.071959 8.545146 13.177409 11.105393 10.167007 C 13.698168 7.666483 17.218517 6.348395 20.814765 6.532839 C 23.955418 6.603355 27.009290 7.585125 29.602065 9.353377 L 31.066594 4.580143 C 29.612907 3.495330 27.974773 2.665437 26.239015 2.139294 C 24.210342 1.439550 22.089467 1.059861 19.946906 1.000187 Z" transform="scale(1.000000,1.000000) translate(189.450667,8.131742)" fill="#2b2d32" opacity="1.000000"></path>
        <path d="M 35.118539 24.432350 L 7.997288 24.432350 L 7.997288 1.054253 L 1.000000 1.054253 L 1.000000 53.776958 L 7.997288 53.776958 L 7.997288 29.693737 L 35.118539 29.693737 L 35.118539 53.776958 L 42.115826 53.776958 L 42.115826 1.000000 L 35.118539 1.000000 L 35.118539 24.432350 Z" transform="scale(1.000000,1.000000) translate(265.840363,8.891306)" fill="#2b2d32" opacity="1.000000"></path>
        <path d="M 21.279622 3.237984 C 18.768208 1.659555 15.833687 0.883915 12.872059 1.014064 C 9.693415 0.883915 6.590752 2.060928 4.301734 4.268585 C 1.915051 7.018606 0.743435 10.620247 1.047192 14.248993 L 1.047192 40.013687 L 7.556276 40.013687 L 7.556276 14.248993 C 7.523748 12.963473 7.708154 11.677953 8.098693 10.452108 C 8.397028 9.524550 8.917760 8.683814 9.617476 8.011217 C 10.257558 7.398294 11.038635 6.948089 11.895692 6.709434 C 12.812384 6.449094 13.761603 6.318903 14.716284 6.329745 C 17.178907 6.215818 19.608960 6.942668 21.605064 8.390906 C 23.465594 9.855448 24.984378 11.705059 26.052947 13.815052 L 26.052947 40.013687 L 32.507818 40.013687 L 32.507818 2.044665 L 26.812381 2.044665 L 26.215710 8.879100 C 25.130835 6.573822 23.422224 4.615705 21.279622 3.237984 Z" transform="scale(1.000000,1.000000) translate(361.260008,8.117865)" fill="#2b2d32" opacity="1.000000"></path>
        <path d="M 14.452159 1.116739 C 12.824867 1.013695 11.197617 1.013695 9.570325 1.116739 C 8.344456 1.274035 7.129429 1.512732 5.936088 1.821904 C 4.992248 2.049717 4.064715 2.358889 3.169708 2.743999 C 2.421159 3.074856 1.699758 3.460007 1.000000 3.883065 L 3.115454 9.307211 C 3.587394 8.916680 4.097242 8.574939 4.634279 8.276610 C 5.420777 7.837288 6.234423 7.457600 7.075175 7.137544 C 8.149166 6.714486 9.255726 6.389009 10.383971 6.161196 C 11.723770 5.895435 13.085254 5.770665 14.452159 5.781508 C 16.654395 5.629632 18.845788 6.204607 20.690055 7.408768 C 22.078645 8.477317 22.870606 10.158789 22.805509 11.910819 C 22.865184 13.397005 22.219681 14.823558 21.069751 15.761958 C 19.247210 17.025793 17.202233 17.947888 15.048830 18.474031 L 10.383971 20.047038 C 8.973654 20.551455 7.644740 21.240357 6.424250 22.108199 C 5.263478 22.938092 4.303375 24.012062 3.603658 25.254213 C 2.833424 26.724135 2.459149 28.367659 2.518825 30.027447 C 2.312692 33.146355 3.728430 36.162179 6.261529 38.000948 C 9.326244 39.904812 12.911649 40.816064 16.513359 40.604556 C 18.791575 40.642504 21.064329 40.420112 23.293672 39.953644 C 24.861288 39.628208 26.385493 39.140013 27.850063 38.489101 L 26.331280 33.064955 C 25.099948 33.677919 23.830667 34.220326 22.534280 34.692215 C 20.684633 35.315981 18.737321 35.614310 16.784588 35.560099 C 14.750494 35.657721 12.721822 35.267190 10.872134 34.420992 C 9.364193 33.601982 8.485492 31.953037 8.648213 30.244417 C 8.631949 29.414524 8.881451 28.595472 9.353350 27.912033 C 9.841554 27.228594 10.470753 26.653619 11.197617 26.230561 C 12.054633 25.715261 12.960482 25.297582 13.909742 24.982989 L 17.164284 24.006641 L 21.557913 22.542140 C 22.957387 22.037682 24.275460 21.321716 25.463380 20.426727 C 28.039891 18.544547 29.488197 15.474470 29.314593 12.290508 C 29.401374 10.402907 28.967466 8.526149 28.067038 6.866362 C 27.247971 5.439809 26.119726 4.213963 24.758242 3.286405 C 23.326241 2.315479 21.726055 1.615776 20.039130 1.225245 C 18.189483 0.964863 16.312689 0.932336 14.452159 1.116739 Z" transform="scale(1.000000,1.000000) translate(400.090556,8.015190)" fill="#2b2d32" opacity="1.000000"></path>
        <path d="M 39.537224 30.015193 C 39.537224 34.548694 38.630619 38.628894 36.816376 41.349197 C 35.003135 44.069492 31.829470 45.429397 28.202502 45.429397 C 24.575534 45.429397 21.855202 44.069492 19.588658 41.349197 C 17.774901 38.628894 16.414993 35.001996 16.414993 30.015193 C 16.414993 25.481692 17.321598 21.401492 19.588658 18.681197 C 21.401869 15.960894 24.575534 14.600997 28.202502 14.600997 C 31.829470 14.600997 34.549832 15.960894 36.816376 18.681197 C 38.630619 21.401492 39.537224 25.481692 39.537224 30.015193 M 55.858337 30.015193 C 55.858337 25.934993 55.405034 21.854793 54.045096 18.227895 C 52.685187 14.600997 50.871430 11.880695 48.604401 9.160400 C 46.337857 6.893899 43.164192 4.626898 39.990527 3.266993 C 36.363073 1.906596 32.736106 1.000000 28.655805 1.000000 C 24.575534 1.000000 20.948566 1.906596 17.321598 3.266993 C 13.694630 4.626898 10.974268 6.440097 8.707724 9.160400 C 6.440695 11.880695 4.173665 14.600997 2.813727 18.227895 C 1.453788 21.854793 1.000000 25.481692 1.000000 30.015193 C 1.000000 34.095393 1.907091 38.175593 3.267029 41.802491 C 4.626968 45.429397 6.440695 48.149692 9.161057 50.869994 C 11.427601 53.136495 14.601236 55.403492 17.774901 56.763393 C 21.401869 58.123790 25.028837 59.030390 29.109138 59.030390 C 33.189408 59.030390 36.816376 58.577092 40.443829 56.763393 C 43.617495 55.403492 46.791160 53.589792 49.058189 50.869994 C 51.324764 48.602993 53.591793 45.429397 54.951731 41.802491 C 55.405034 38.175593 55.858337 34.095393 55.858337 30.015193 Z" transform="scale(1.000000,1.000000) translate(400.820534,189.161270)" fill="#2b2d32" opacity="1.000000"></path>
        <path d="M 38.629617 34.548702 C 38.629617 35.909100 38.176315 37.268997 37.723012 38.175600 C 37.269679 39.535998 36.816376 40.442601 35.909255 41.349197 C 35.002650 42.256293 34.096044 43.162896 32.735620 43.616198 C 31.375682 44.069499 30.015758 44.522801 28.202016 44.522801 C 26.388775 44.522801 25.028351 44.069499 23.668428 43.616198 C 22.308505 43.162896 21.401383 42.256293 20.494778 41.349197 C 19.588157 40.442601 19.134839 39.082696 18.681537 38.175600 C 18.227733 36.815695 17.774416 35.455798 17.774416 34.548702 L 38.629617 34.548702 Z M 1.000000 28.655296 C 1.000000 33.642099 1.906621 37.722299 3.266544 41.349197 C 4.626968 44.976095 6.893512 48.149699 9.160556 50.416693 C 11.880904 52.683197 14.600766 54.496896 17.774416 55.856797 C 20.948081 57.217195 24.575049 57.670496 27.748714 57.670496 C 35.909255 57.670496 42.256585 55.403495 46.790189 50.869994 C 51.324248 46.336493 53.590792 39.535998 53.590792 30.015201 L 53.590792 27.294898 C 53.590792 26.388302 53.590792 25.481699 53.137489 24.575096 L 16.867795 24.575096 C 17.321113 21.401499 18.681537 19.134498 21.401383 16.867998 C 24.121746 15.054299 27.748714 14.147703 32.282287 14.147703 C 35.002650 14.147703 38.176315 14.600997 40.896647 15.054299 C 43.616524 15.507600 45.883553 16.414204 47.697280 16.867998 L 49.963824 4.626898 C 49.057218 4.173604 48.150613 3.720303 46.336856 3.267001 C 44.976948 2.813699 43.163191 2.360398 41.349980 2.360398 C 39.536223 1.906603 37.723012 1.906603 35.909255 1.453302 C 34.096044 1.453302 31.828984 1.000000 30.015758 1.000000 C 25.028351 1.000000 20.494778 1.906603 16.867795 3.267001 C 13.240827 4.626898 10.067177 6.440598 7.346815 9.160400 C 5.080271 11.427401 3.266544 14.600997 1.906621 18.227903 C 1.453303 20.948198 1.000000 24.575096 1.000000 28.655296 Z" transform="scale(1.000000,1.000000) translate(223.552835,190.067865)" fill="#2b2d32" opacity="1.000000"></path>
        <path d="M 37.722997 14.601005 C 36.816376 14.601005 35.909771 14.147703 34.549347 14.147703 L 30.469061 14.147703 C 25.935473 14.147703 22.761807 15.507600 20.494778 18.227903 C 18.228234 20.948198 17.321613 25.028398 17.321613 29.561899 C 17.321613 39.535998 20.948581 44.522801 28.655820 44.522801 C 30.469061 44.522801 31.829485 44.522801 33.642726 44.069499 C 35.456453 43.616198 36.363073 43.162896 37.722997 42.709595 L 37.722997 14.601005 Z M 37.722997 75.804995 L 37.722997 54.950198 C 35.909771 55.856797 34.096029 56.310099 32.282788 56.763400 C 30.469061 57.217195 28.655820 57.217195 26.388790 57.217195 C 22.308505 57.217195 18.681537 56.763400 15.507872 55.403499 C 12.334222 54.043598 9.613859 52.229899 7.800625 49.963398 C 5.533589 47.696398 4.173658 44.522801 2.813734 40.895903 C 1.453310 37.268997 1.000000 33.642099 1.000000 29.108597 C 1.000000 25.028398 1.906613 20.948198 2.813734 17.321300 C 4.173658 13.694402 5.986891 10.974099 8.707239 8.253804 C 11.427601 5.986803 14.147948 3.720303 17.774916 2.813699 C 21.401884 1.453302 25.482170 1.000000 30.015758 1.000000 C 31.829485 1.000000 34.096029 1.000000 35.909771 1.453302 C 38.176315 1.453302 39.990041 1.906603 42.256585 2.359905 C 44.070327 2.813699 46.337357 2.813699 48.150598 3.267001 C 49.964340 3.720303 51.777566 4.173604 53.137489 4.626906 L 53.137489 80.791794 L 37.722997 75.804995 Z" transform="scale(1.000000,1.000000) translate(119.277341,189.614564)" fill="#2b2d32" opacity="1.000000"></path>
        <path d="M 5.126505 1.009935 C 5.035037 1.003474 4.943085 1.000000 4.851632 1.000000 C 2.738672 1.000000 1.000000 2.738638 1.000000 4.851558 C 1.000000 4.908713 1.001487 4.966368 1.003974 5.024023 C 0.964702 6.120991 1.353902 7.191626 2.089025 8.007264 C 3.740719 9.609219 6.403425 9.609219 8.055604 8.007264 C 8.815103 7.203047 9.225175 6.129440 9.194853 5.024023 C 9.226662 3.950431 8.814102 2.909617 8.055604 2.149147 C 7.274748 1.387190 6.216531 0.975639 5.126505 1.009935 Z" transform="scale(1.000000,1.000000) translate(173.623232,52.871956)" fill="#2b2d32" opacity="1.000000"></path>
        <path d="M 7.400497 38.969365 L 7.400497 1.000000 L 1.000000 1.000000 L 1.000000 38.969365 L 7.454680 38.969365 L 7.400497 38.969365 Z" transform="scale(1.000000,1.000000) translate(174.603906,9.163274)" fill="#2b2d32" opacity="1.000000"></path>
        <path d="M 1.000000 56.055113 L 7.563537 56.055113 C 7.563537 56.055113 7.563537 56.055113 7.563537 56.055113 L 7.563537 1.000000 C 7.563537 1.000000 7.563537 1.000000 7.563537 1.000000 L 1.000000 1.000000 C 1.000000 1.000000 1.000000 1.000000 1.000000 1.000000 L 1.000000 56.055113 C 1.000000 56.055113 1.000000 56.055113 1.000000 56.055113 Z" transform="scale(1.000000,1.000000) translate(227.381607,8.891876)" fill="#2b2d32" opacity="1.000000"></path>
        <path d="M 16.947340 1.000000 L 1.000000 21.394560 L 16.730624 39.185607 L 23.456703 39.185607 L 7.889112 22.154014 L 24.541268 1.000000 L 16.947340 1.000000 Z" transform="scale(1.000000,1.000000) translate(234.812487,8.892365)" fill="#2b2d32" opacity="1.000000"></path>
        <path d="M 19.347460 1.001937 C 16.932292 0.999935 14.538513 1.460206 12.295814 2.357845 C 10.095376 3.217228 8.099230 4.529421 6.438101 6.208902 C 4.715326 8.003724 3.369312 10.124608 2.478088 12.446776 C 0.507304 17.914215 0.507304 23.902537 2.478088 29.369975 C 3.364822 31.678735 4.712322 33.782690 6.438101 35.553637 C 8.104205 37.227173 10.098865 38.538364 12.295814 39.404725 C 14.538513 40.302364 16.932292 40.762636 19.347460 40.760633 C 21.780526 40.761634 24.191689 40.301363 26.453288 39.404725 C 28.665649 38.536878 30.677692 37.226202 32.365670 35.553637 C 34.126730 33.789668 35.511000 31.685682 36.434018 29.369975 C 38.456527 23.911972 38.456527 17.905265 36.434018 12.446776 C 35.587541 10.139503 34.297713 8.020622 32.637069 6.208902 C 30.954552 4.529421 28.940992 3.217714 26.724657 2.357845 C 24.378082 1.426896 21.871478 0.966139 19.347460 1.001937 Z M 19.347460 5.938024 C 20.866427 5.944000 22.372502 6.219854 23.795542 6.751690 C 25.270793 7.294448 26.592931 8.188112 27.646704 9.355173 C 28.856502 10.710595 29.779035 12.297640 30.358602 14.019897 C 31.091738 16.240679 31.440164 18.570280 31.389470 20.908376 C 31.446626 23.246957 31.097714 25.577559 30.358602 27.797341 C 29.772573 29.500212 28.850040 31.067871 27.646704 32.407883 C 26.592931 33.574428 25.270793 34.468122 23.795542 35.011365 C 22.372502 35.543202 20.866427 35.818570 19.347460 35.825031 C 17.863775 35.819571 16.392983 35.544203 15.008228 35.011365 C 13.574721 34.447251 12.292841 33.555558 11.265432 32.407883 C 10.071530 31.070359 9.166381 29.500697 8.607716 27.797341 C 7.900398 25.571613 7.570356 23.242952 7.631001 20.908376 C 7.576333 18.574285 7.905889 16.246625 8.607716 14.019897 C 9.159919 12.297155 10.065069 10.708623 11.265432 9.355173 C 12.291355 8.205526 13.573720 7.313833 15.008228 6.751690 C 16.392983 6.218853 17.863775 5.942999 19.347460 5.938024 Z" transform="scale(1.000000,1.000000) translate(316.216883,8.130974)" fill="#2b2d32" opacity="1.000000"></path>
        <path d="M 32.771977 5.042555 C 31.162543 3.748746 29.321968 2.773051 27.347665 2.167678 C 24.951914 1.373882 22.439818 0.989180 19.916285 1.028436 C 14.690805 0.735685 9.585127 2.714410 5.921876 6.452644 C 2.456940 10.535840 0.706316 15.807423 1.040331 21.152088 C 0.995128 23.976787 1.454377 26.787531 2.396296 29.451172 C 3.219898 31.756959 4.491857 33.876811 6.139092 35.688531 C 7.647623 37.362551 9.497148 38.694614 11.563374 39.594255 C 13.765815 40.497901 16.125282 40.958627 18.506168 40.950194 C 20.889026 40.979529 23.252499 40.517771 25.449448 39.594255 C 27.465465 38.742334 29.223553 37.376961 30.548179 35.634349 C 31.959297 33.712809 32.889292 31.480590 33.260077 29.125627 C 33.761616 26.145360 33.761616 23.101992 33.260077 20.121240 L 7.440843 20.121240 C 7.730141 11.045287 12.015190 6.506826 20.296050 6.506826 C 22.288222 6.466053 24.271444 6.778220 26.154249 7.428825 C 27.832306 8.037717 29.434277 8.838429 30.927913 9.815611 L 32.771977 5.042555 Z M 18.723385 36.177106 C 16.088513 36.202468 13.556547 35.142284 11.725922 33.248078 C 9.555305 30.810083 8.257013 27.717509 8.037309 24.460903 L 27.401848 24.460903 C 27.934210 27.556451 27.211480 30.739490 25.394780 33.302230 C 23.732134 35.233234 21.268761 36.294419 18.723385 36.177106 Z" transform="scale(1.000000,1.000000) translate(434.113304,8.158626)" fill="#2b2d32" opacity="1.000000"></path>
        <path d="M 1.000000 42.248501 L 23.776897 42.248501 L 23.776897 66.915227 L 39.257316 66.915227 L 39.257316 42.248501 L 62.160900 42.248501 L 62.160900 25.529907 L 39.257316 25.529907 L 39.257316 1.000000 L 23.776897 1.000000 L 23.776897 25.529907 L 1.000000 25.529907 L 1.000000 42.248501 Z" transform="scale(1.000000,1.000000) translate(256.897889,99.675422)" fill="#2b2d32" opacity="1.000000"></path>
    </g>
</svg>