<?xml version="1.0" encoding="UTF-8" standalone="no"?>
<!DOCTYPE svg PUBLIC "-//W3C//DTD SVG 1.1//EN" "http://www.w3.org/Graphics/SVG/1.1/DTD/svg11.dtd">
<svg width="100%" height="100%" viewBox="0 0 54 48" version="1.1" xmlns="http://www.w3.org/2000/svg" xmlns:xlink="http://www.w3.org/1999/xlink" xml:space="preserve" xmlns:serif="http://www.serif.com/" style="fill-rule:evenodd;clip-rule:evenodd;stroke-linejoin:round;stroke-miterlimit:2;">
    <g transform="matrix(0.925926,0,0,0.925926,2,1.77778)">
        <rect x="0" y="42" width="6" height="6" style="fill:rgb(255,0,0);"/>
    </g>
    <g transform="matrix(0.925926,0,0,0.925926,2,1.77778)">
        <rect x="0" y="0" width="6" height="42" style="fill:rgb(255,204,0);"/>
    </g>
    <g transform="matrix(0.925926,0,0,0.925926,2,1.77778)">
        <rect x="12" y="0" width="6" height="48" style="fill:rgb(255,204,0);"/>
    </g>
    <g transform="matrix(0.925926,0,0,0.925926,2,1.77778)">
        <rect x="24" y="0" width="6" height="48" style="fill:rgb(255,204,0);"/>
    </g>
    <g transform="matrix(0.925926,0,0,0.925926,2,1.77778)">
        <rect x="36" y="0" width="6" height="48" style="fill:rgb(255,204,0);"/>
    </g>
    <g transform="matrix(0.925926,0,0,0.925926,2,1.77778)">
        <rect x="48" y="19.5" width="6" height="9" style="fill:rgb(255,204,0);"/>
    </g>
</svg>
